<?xml version="1.0" standalone="no"?><!DOCTYPE svg PUBLIC "-//W3C//DTD SVG 1.1//EN" "http://www.w3.org/Graphics/SVG/1.1/DTD/svg11.dtd"><svg t="1724841785032" class="icon" viewBox="0 0 1378 1024" version="1.1" xmlns="http://www.w3.org/2000/svg" p-id="16973" xmlns:xlink="http://www.w3.org/1999/xlink" width="269.140625" height="200"><path d="M1291.616 345.775h-65.572v49.203a32.86 32.86 0 0 1-32.81 32.81H917.684a32.86 32.86 0 0 1-32.81-32.81v-49.203H835.67a32.907 32.907 0 0 0-32.81 32.81V959.19A32.883 32.883 0 0 0 835.671 992h455.945a32.883 32.883 0 0 0 32.81-32.81V378.584a32.883 32.883 0 0 0-32.81-32.81zM970.166 844.39h-65.571v-65.572h65.572z m0-131.144h-65.571v-65.573h65.572z m29.508-193.535H986.56v16.393h-16.393v16.418H953.75v13.065h-16.393v16.393h-32.81v-16.393h-16.394v-16.392H871.76v-16.417h32.786v16.417h29.531v-16.417h19.673v-16.393h16.417v-16.37h32.786z m259.156 308.165h-226.248v-32.787h226.345z m0-131.144h-226.248v-32.763h226.345z m0-127.94h-226.248v-32.761h226.345z" fill="#4239ec" p-id="16974"></path><path d="M953.75 391.7h209.976a32.86 32.86 0 0 0 32.786-32.786v-45.9a32.86 32.86 0 0 0-32.786-32.835H953.75a32.86 32.86 0 0 0-32.884 32.834v45.9A32.86 32.86 0 0 0 953.75 391.7z m16.417-78.687h177.118a16.393 16.393 0 1 1 0 32.786h-177.12a16.393 16.393 0 1 1 0-32.786z m346.415 45.828v28.414a75.287 75.287 0 0 0 1.214-13.455 91.922 91.922 0 0 0-1.214-14.96z" fill="#4239ec" p-id="16975"></path><path d="M726.579 884.875V817.7h-349.72c0-61.468 68.609-65.573 102.9-65.573h246.819V426.697H343.709c-67.49 0-90.732-27.2-68.608-64.48l136.002-195.478c25.452-32.251 68.583-32.251 68.583-32.251h409.608s42.039-0.996 68.607 32.251l25.5 36.43h117.957l-54.302-68.535C982.383 54.222 969.146 32 878.074 32H471.99c-91.096 0-107.562 30.698-169.006 102.633L168.001 305.047h-68c-4.25 0-68.001 0-68.001 68.753 0 63.484 68 68.778 68 68.778-34 29.726-68 67.71-68 136.488v238.003c0 63.506 2.138 68.777 34 68.777v34c0 47.625 37.303 68.778 84.492 68.778h34c46.144 0 84.516-21.153 84.516-68.778v-34h566.348v-0.995z m-587.55-295.002c0-97.726 238.973-10.054 238.973 65.572 0 77.715-238.974 26.23-238.974-65.573z" fill="#4239ec" p-id="16976"></path></svg>